<svg width="2299" height="543" viewBox="0 0 2299 543" fill="none" xmlns="http://www.w3.org/2000/svg">
<path d="M2258 6C2264.53 6 2270.91 7.93542 2276.33 11.5615C2281.76 15.1876 2285.99 20.3415 2288.49 26.3714C2290.99 32.4014 2291.64 39.0366 2290.37 45.438C2289.09 51.8394 2285.95 57.7194 2281.33 62.3345C2276.72 66.9497 2270.84 70.0926 2264.44 71.3659C2258.04 72.6392 2251.4 71.9857 2245.37 69.488C2239.34 66.9903 2234.19 62.7606 2230.56 57.3338C2226.94 51.907 2225 45.5268 2225 39C2225 30.2479 2228.48 21.8542 2234.67 15.6655C2240.85 9.47678 2249.25 6 2258 6ZM2258 65.35C2263.2 65.3441 2268.29 63.7961 2272.61 60.9018C2276.94 58.0074 2280.3 53.8965 2282.29 49.0884C2284.28 44.2803 2284.8 38.9907 2283.78 33.8879C2282.77 28.7851 2280.26 24.0981 2276.58 20.419C2272.9 16.7399 2268.21 14.2337 2263.11 13.2172C2258.01 12.2007 2252.72 12.7194 2247.91 14.7078C2243.1 16.6961 2238.99 20.065 2236.1 24.3887C2233.2 28.7124 2231.66 33.797 2231.65 39C2231.65 42.4614 2232.32 45.8897 2233.65 49.0884C2234.97 52.2871 2236.91 55.1935 2239.36 57.6411C2241.81 60.0887 2244.71 62.0294 2247.91 63.3523C2251.11 64.6751 2254.54 65.3539 2258 65.35Z" fill="black"/>
<path d="M2263.7 39.41C2264.81 39.7524 2265.84 40.3233 2266.72 41.0862C2267.6 41.8491 2268.31 42.7871 2268.8 43.84C2269.8 45.59 2270.64 47.39 2271.53 49.18C2272.53 51.18 2273.53 53.18 2274.53 55.25C2274.53 55.34 2274.61 55.43 2274.67 55.56H2265.52C2265.42 55.5714 2265.32 55.5502 2265.24 55.4996C2265.15 55.449 2265.09 55.3718 2265.05 55.28C2263.62 52.35 2262.2 49.42 2260.73 46.52C2260.3 45.7151 2259.8 44.9518 2259.23 44.24C2258.84 43.7437 2258.35 43.3369 2257.79 43.0471C2257.23 42.7572 2256.61 42.5911 2255.98 42.56C2254.82 42.46 2253.65 42.5 2252.49 42.48H2252.39V55.48H2243.49V21H2243.72C2248.42 21 2253.11 21 2257.8 21C2260.06 20.9715 2262.31 21.3092 2264.46 22C2265.88 22.4463 2267.17 23.2404 2268.2 24.31C2269.25 25.4837 2269.92 26.9542 2270.1 28.52C2270.4 30.2619 2270.3 32.0478 2269.83 33.75C2269.49 34.8912 2268.89 35.9406 2268.09 36.8201C2267.29 37.6997 2266.3 38.3867 2265.19 38.83C2264.73 39 2264.23 39.2 2263.7 39.41ZM2252.42 36.33H2252.57C2253.92 36.33 2255.26 36.33 2256.57 36.33C2257.24 36.3084 2257.92 36.2145 2258.57 36.05C2259.2 35.9337 2259.78 35.636 2260.24 35.1936C2260.7 34.7512 2261.03 34.1833 2261.17 33.56C2261.46 32.4655 2261.46 31.3144 2261.17 30.22C2261.05 29.6302 2260.77 29.0874 2260.34 28.6577C2259.92 28.228 2259.39 27.93 2258.8 27.8C2258.09 27.6236 2257.36 27.5165 2256.63 27.48C2255.29 27.43 2253.95 27.48 2252.63 27.48H2252.42V36.33Z" fill="black"/>
<path d="M243.18 333.68C253.332 333.517 263.013 329.369 270.135 322.132C277.257 314.895 281.248 305.148 281.248 294.995C281.248 284.841 277.257 275.095 270.135 267.858C263.013 260.621 253.332 256.473 243.18 256.31H127.12C96.3363 256.591 66.7017 244.632 44.7356 223.063C22.7695 201.495 10.2711 172.084 9.98995 141.3C9.70882 110.516 21.668 80.8818 43.2365 58.9157C64.8051 36.9495 94.2163 24.4511 125 24.17H301.21C311.471 24.17 321.312 28.2463 328.568 35.5021C335.824 42.7578 339.9 52.5988 339.9 62.86C339.9 73.1212 335.824 82.9622 328.568 90.218C321.312 97.4738 311.471 101.55 301.21 101.55H127.12C116.859 101.55 107.018 105.626 99.762 112.882C92.5062 120.138 88.43 129.979 88.43 140.24C88.43 150.501 92.5062 160.342 99.762 167.598C107.018 174.854 116.859 178.93 127.12 178.93H243.19C273.786 179.214 303.032 191.567 324.567 213.303C346.101 235.038 358.183 264.398 358.183 294.995C358.183 325.592 346.101 354.952 324.567 376.687C303.032 398.423 273.786 410.776 243.19 411.06H49.74C39.4787 411.06 29.6378 406.984 22.382 399.728C15.1262 392.472 11.05 382.631 11.05 372.37C11.05 362.109 15.1262 352.268 22.382 345.012C29.6378 337.756 39.4787 333.68 49.74 333.68H243.18Z" fill="#47D523"/>
<path d="M593.09 26.15C487.37 26.15 401.67 111.86 401.67 217.57C401.67 323.28 487.37 409 593.09 409C698.81 409 784.51 323.29 784.51 217.57C784.51 111.86 698.81 26.15 593.09 26.15Z" fill="#47D523"/>
<path d="M550.53 281.56L524.89 202.65L592.01 153.88L659.12 202.65L633.49 281.56H550.53Z" fill="white"/>
<path d="M591.83 22.38C484.02 22.38 396.63 109.77 396.63 217.57C396.63 325.37 484.02 412.77 591.83 412.77C699.64 412.77 787 325.38 787 217.57C787 109.76 699.58 22.5 591.83 22.38ZM727.59 322.24L723.9 285L653.66 302.51L615.26 363.86L649.78 379C612.322 392.44 571.358 392.44 533.9 379L568.59 363.81L530.25 302.42L460 284.84L456.24 322.51C432.901 292.511 420.249 255.578 420.29 217.57C420.29 215.73 420.29 213.9 420.38 212.06L445.62 240.45L492.21 185L487.21 112.79L450.21 120.79C472.652 87.9899 505.751 63.9643 543.89 52.79L524.82 85.39L592 112.57L659.11 85.48L640.14 53C678.112 64.2301 711.053 88.207 733.41 120.89L696.89 112.89L691.89 185.09L738.39 240.57L763.31 212.57C763.31 214.21 763.38 215.86 763.38 217.57C763.401 255.466 750.809 292.291 727.59 322.24Z" fill="white"/>
<path d="M550.53 281.56L524.89 202.65L592.01 153.88L659.12 202.65L633.49 281.56H550.53Z" fill="white"/>
<path d="M591.83 22.38C484.02 22.38 396.63 109.77 396.63 217.57C396.63 325.37 484.02 412.77 591.83 412.77C699.64 412.77 787 325.38 787 217.57C787 109.76 699.58 22.5 591.83 22.38ZM727.59 322.24L723.9 285L653.66 302.51L615.26 363.86L649.78 379C612.322 392.44 571.358 392.44 533.9 379L568.59 363.81L530.25 302.42L460 284.84L456.24 322.51C432.901 292.511 420.249 255.578 420.29 217.57C420.29 215.73 420.29 213.9 420.38 212.06L445.62 240.45L492.21 185L487.21 112.79L450.21 120.79C472.652 87.9899 505.751 63.9643 543.89 52.79L524.82 85.39L592 112.57L659.11 85.48L640.14 53C678.112 64.2301 711.053 88.207 733.41 120.89L696.89 112.89L691.89 185.09L738.39 240.57L763.31 212.57C763.31 214.21 763.38 215.86 763.38 217.57C763.401 255.466 750.809 292.291 727.59 322.24Z" fill="white"/>
<path d="M1017.84 411.06C911 411.24 824.24 324.79 824.06 218C823.88 111.21 910.33 24.36 1017.17 24.17C1042.67 24.1294 1067.92 29.1293 1091.48 38.8823C1115.04 48.6352 1136.44 62.9487 1154.45 81C1161.65 88.241 1165.77 97.9891 1165.94 108.2C1165.77 118.407 1161.64 128.149 1154.42 135.367C1147.2 142.586 1137.46 146.718 1127.25 146.89C1122.16 146.999 1117.11 146.032 1112.42 144.052C1107.73 142.072 1103.52 139.124 1100.05 135.4C1089.3 124.55 1076.49 115.964 1062.37 110.15C1048.25 104.336 1033.11 101.412 1017.84 101.55C998.772 101.595 980.009 106.337 963.209 115.356C946.409 124.376 932.09 137.396 921.517 153.265C910.945 169.133 904.445 187.363 902.592 206.34C900.739 225.318 903.59 244.46 910.893 262.075C918.196 279.689 929.727 295.232 944.465 307.331C959.202 319.43 976.694 327.712 995.393 331.444C1014.09 335.177 1033.42 334.245 1051.68 328.731C1069.93 323.217 1086.54 313.291 1100.05 299.83C1103.6 296.217 1107.84 293.342 1112.5 291.37C1117.17 289.398 1122.18 288.368 1127.25 288.34C1137.42 288.617 1147.09 292.778 1154.29 299.969C1161.49 307.159 1165.65 316.832 1165.94 327C1165.91 332.068 1164.89 337.08 1162.91 341.749C1160.94 346.417 1158.07 350.649 1154.45 354.2C1136.58 372.255 1115.3 386.579 1091.85 396.34C1068.4 406.101 1043.24 411.105 1017.84 411.06Z" fill="#47D523"/>
<path d="M1366 411.06C1259.17 411.24 1172.41 324.79 1172.23 217.95C1172.05 111.11 1258.5 24.36 1365.33 24.17C1390.83 24.1266 1416.09 29.125 1439.66 38.878C1463.22 48.631 1484.63 62.946 1502.64 81C1509.84 88.2439 1513.95 97.9902 1514.13 108.2C1513.96 118.407 1509.82 128.146 1502.6 135.365C1495.39 142.583 1485.65 146.715 1475.44 146.89C1470.35 147.006 1465.3 146.043 1460.61 144.062C1455.92 142.081 1451.7 139.129 1448.24 135.4C1437.49 124.547 1424.67 115.96 1410.55 110.146C1396.42 104.332 1381.27 101.409 1366 101.55C1346.93 101.596 1328.17 106.34 1311.37 115.361C1294.57 124.381 1280.25 137.402 1269.68 153.271C1259.11 169.14 1252.61 187.369 1250.76 206.347C1248.91 225.324 1251.76 244.466 1259.07 262.079C1266.37 279.693 1277.9 295.235 1292.64 307.334C1307.38 319.432 1324.87 327.713 1343.57 331.445C1362.26 335.177 1381.6 334.244 1399.85 328.73C1418.1 323.216 1434.71 313.29 1448.22 299.83C1451.77 296.216 1456 293.34 1460.67 291.368C1465.34 289.396 1470.35 288.367 1475.42 288.34C1485.59 288.615 1495.27 292.774 1502.47 299.964C1509.67 307.155 1513.84 316.829 1514.13 327C1514.1 332.067 1513.07 337.079 1511.1 341.748C1509.13 346.416 1506.25 350.648 1502.64 354.2C1484.77 372.258 1463.48 386.584 1440.03 396.346C1416.57 406.107 1391.41 411.109 1366 411.06Z" fill="#47D523"/>
<path d="M1622.31 333.68H1815.75C1826.01 333.68 1835.85 337.756 1843.11 345.012C1850.36 352.268 1854.44 362.109 1854.44 372.37C1854.44 382.631 1850.36 392.472 1843.11 399.728C1835.85 406.984 1826.01 411.06 1815.75 411.06H1583.62C1573.39 410.976 1563.59 406.873 1556.36 399.635C1549.12 392.397 1545.02 382.604 1544.94 372.37V62.86C1545.02 52.6256 1549.12 42.8331 1556.36 35.5951C1563.59 28.3571 1573.39 24.2537 1583.62 24.17H1815.75C1826.01 24.17 1835.85 28.2463 1843.11 35.5021C1850.36 42.7578 1854.44 52.5988 1854.44 62.86C1854.44 73.1212 1850.36 82.9622 1843.11 90.218C1835.85 97.4738 1826.01 101.55 1815.75 101.55H1622.31V178.93H1777.07C1787.33 178.93 1797.17 183.006 1804.43 190.262C1811.68 197.518 1815.76 207.359 1815.76 217.62C1815.76 227.881 1811.68 237.722 1804.43 244.978C1797.17 252.234 1787.33 256.31 1777.07 256.31H1622.31V333.68Z" fill="#47D523"/>
<path d="M1960.82 372.37C1960.9 377.503 1959.96 382.6 1958.06 387.366C1956.15 392.132 1953.31 396.47 1949.71 400.129C1946.11 403.788 1941.82 406.694 1937.08 408.677C1932.35 410.661 1927.27 411.682 1922.14 411.682C1917 411.682 1911.92 410.661 1907.19 408.677C1902.45 406.694 1898.16 403.788 1894.56 400.129C1890.96 396.47 1888.12 392.132 1886.21 387.366C1884.31 382.6 1883.37 377.503 1883.45 372.37V62.86C1883.53 52.6239 1887.63 42.8299 1894.87 35.5916C1902.11 28.3533 1911.9 24.2511 1922.14 24.17H2115.58C2145.12 24.2114 2173.53 35.4985 2195.05 55.7374C2216.57 75.9763 2229.57 103.648 2231.42 133.13C2233.27 162.612 2223.82 191.691 2205 214.458C2186.18 237.225 2159.39 251.971 2130.09 255.7L2220.17 345.17C2223.84 348.677 2226.76 352.901 2228.73 357.579C2230.7 362.258 2231.69 367.292 2231.64 372.37C2231.56 382.598 2227.46 392.384 2220.24 399.621C2213.01 406.858 2203.23 410.966 2193 411.06C2187.92 411.109 2182.89 410.114 2178.21 408.138C2173.53 406.161 2169.31 403.245 2165.8 399.57L2022.49 256.31H1960.82V372.37ZM1960.82 101.55V178.93H2115.58C2125.84 178.93 2135.68 174.854 2142.94 167.598C2150.19 160.342 2154.27 150.501 2154.27 140.24C2154.27 129.979 2150.19 120.138 2142.94 112.882C2135.68 105.626 2125.84 101.55 2115.58 101.55H1960.82Z" fill="#47D523"/>
<path d="M1788.81 410C1783.41 410.55 1778.04 411.401 1772.73 412.55C1770.36 413.003 1764.77 414.247 1755.98 416.28C1755.21 418.949 1754.72 421.69 1754.51 424.46C1754.05 428.62 1753.17 437.703 1751.87 451.71C1751.32 456.95 1750.58 474.4 1749.64 504.06C1749.75 510.213 1749.2 516.361 1748.02 522.4C1747.09 525.292 1745.74 528.033 1744.02 530.54C1742.64 532.085 1740.96 533.335 1739.08 534.215C1737.2 535.094 1735.16 535.586 1733.09 535.66C1731.69 535.932 1730.25 535.919 1728.86 535.62C1727.46 535.321 1726.14 534.742 1724.98 533.92C1722.91 531.294 1721.82 528.032 1721.89 524.69C1721.47 508.227 1722.38 491.757 1724.61 475.44C1726.3 457.085 1729.01 438.837 1732.71 420.78C1731.05 421.682 1729.23 422.23 1727.35 422.39L1725.48 422.56C1724.79 422.4 1724.08 422.33 1723.37 422.35C1721.47 422.71 1719.5 422.49 1717.72 421.72C1716.72 421.05 1716.08 419.27 1715.83 416.38C1715.47 412.38 1718.08 408.293 1723.67 404.12C1728.46 400.637 1733.69 397.822 1739.24 395.75C1741.53 387.083 1743.28 380.357 1744.5 375.57C1746.64 364.491 1750.93 353.938 1757.13 344.51C1761.63 339.426 1767.49 335.749 1774.03 333.92C1779.12 332.604 1784.32 331.767 1789.56 331.42C1792.47 330.946 1795.46 331.383 1798.11 332.67C1799.16 333.423 1800.01 334.418 1800.59 335.571C1801.17 336.724 1801.46 338 1801.44 339.29C1802.11 343.774 1801.2 348.351 1798.87 352.24C1796.53 355.586 1793.32 358.222 1789.58 359.86C1788.52 360.33 1787.39 360.621 1786.24 360.72C1784.71 360.752 1783.18 360.668 1781.67 360.47C1779.9 360.23 1778.12 360.16 1776.34 360.26C1774.59 360.29 1772.9 360.942 1771.58 362.1C1769.1 366.495 1767.21 371.204 1765.98 376.1C1764.28 381.307 1762.64 386.443 1761.07 391.51C1761.94 391.44 1765.53 390.9 1771.83 389.92C1778.13 388.94 1782.41 388.33 1784.66 388.13C1790.32 387.081 1796.17 387.685 1801.5 389.87C1802.67 390.729 1803.61 391.855 1804.25 393.152C1804.89 394.45 1805.21 395.882 1805.19 397.33C1805.06 404.85 1799.6 409.073 1788.81 410Z" fill="white"/>
<path d="M1903.94 386.48C1897.94 388.4 1891.61 390.597 1884.94 393.07C1883.72 393.563 1877.98 395.837 1867.72 399.89C1868.99 401.43 1870.32 402.89 1871.72 404.29C1873.12 407.324 1873.86 410.619 1873.9 413.96C1874.94 425.74 1872.62 437.574 1867.21 448.09C1861.95 457.841 1855.25 466.741 1847.33 474.49C1843.99 477.95 1840.07 480.799 1835.75 482.91C1830.77 484.91 1825.48 486.072 1820.12 486.35C1814.21 487.071 1808.21 485.939 1802.97 483.11C1799.81 481.213 1797.19 478.544 1795.35 475.355C1793.51 472.166 1792.51 468.561 1792.45 464.88C1791.78 455.135 1792.86 445.349 1795.62 435.98C1797.41 428.795 1800.1 421.864 1803.62 415.35C1808.81 405.718 1815.16 396.755 1822.52 388.66C1825.27 385.475 1829.04 383.352 1833.19 382.66C1835.13 382.562 1837.03 383.178 1838.55 384.39C1839.4 384.929 1840.11 385.654 1840.63 386.511C1841.15 387.367 1841.46 388.332 1841.55 389.33C1840.98 395.659 1838.77 401.73 1835.13 406.94C1830.54 415.06 1825.98 422.987 1821.47 430.72C1817.42 437.482 1815.22 445.189 1815.08 453.07C1815.22 455.615 1816.28 458.021 1818.08 459.83C1819.1 460.734 1820.32 461.399 1821.63 461.776C1822.94 462.153 1824.32 462.233 1825.67 462.01C1829.87 461.271 1833.8 459.456 1837.09 456.743C1840.37 454.03 1842.9 450.511 1844.42 446.53C1848.89 438.519 1850.92 429.38 1850.28 420.23C1849.91 417.375 1849.22 414.57 1848.22 411.87C1846.31 406.958 1844.85 401.884 1843.85 396.71C1843.31 390.417 1851.71 384.5 1869.04 378.96C1880.32 375.164 1891.99 372.615 1903.83 371.36C1906.19 371.12 1908.57 371.365 1910.83 372.08C1912.97 372.77 1914.11 373.75 1914.21 375C1914.28 376.422 1914.01 377.841 1913.44 379.143C1912.86 380.445 1911.99 381.594 1910.89 382.5C1908.95 384.397 1906.56 385.767 1903.94 386.48Z" fill="white"/>
<path d="M1960.78 394.59C1953.32 396.427 1946.46 400.161 1940.87 405.43C1931.64 412.838 1923.4 421.398 1916.35 430.9C1913.48 435.799 1911.51 441.174 1910.54 446.77C1909.37 452.168 1908.64 457.653 1908.37 463.17C1908.09 468.697 1903.56 471.843 1894.79 472.61C1892.95 472.845 1891.08 472.526 1889.42 471.692C1887.76 470.858 1886.38 469.549 1885.47 467.93C1883.94 465.48 1883.05 462.691 1882.86 459.81C1885.66 448.477 1888.2 438.11 1890.47 428.71C1892.59 420.955 1893.46 412.909 1893.03 404.88C1892.86 403.246 1892.59 401.623 1892.23 400.02C1891.88 398.544 1891.63 397.048 1891.46 395.54C1891.37 394.54 1891.28 393.54 1891.19 392.54L1891.75 390.21C1892.59 386.095 1894.17 382.168 1896.42 378.62C1897.12 377.19 1898.14 375.944 1899.41 374.979C1900.67 374.013 1902.15 373.357 1903.71 373.06C1906.24 372.887 1908.74 373.725 1910.65 375.39C1911.76 376.275 1912.68 377.387 1913.33 378.653C1913.98 379.919 1914.35 381.309 1914.42 382.73C1914.86 386.878 1914.97 391.054 1914.76 395.22C1913.99 399.58 1913.34 403.76 1912.82 407.71C1920.98 398.53 1928.34 390.933 1934.89 384.92C1941.61 377.182 1950.28 371.382 1960 368.12L1963.57 367.81C1964.82 367.69 1966.08 367.52 1967.32 367.28C1970.34 366.848 1973.42 367.129 1976.32 368.1C1978.42 369.01 1979.62 371.21 1979.93 374.72C1980.57 377.416 1980.56 380.223 1979.9 382.915C1979.25 385.606 1977.97 388.106 1976.17 390.21C1971.56 393.106 1966.22 394.625 1960.78 394.59Z" fill="white"/>
<path d="M2052.3 451.44C2046.58 455.795 2040.57 459.741 2034.3 463.25C2029.73 465.207 2024.85 466.341 2019.89 466.6C2018.73 466.624 2017.57 466.417 2016.49 465.989C2015.41 465.561 2014.43 464.923 2013.6 464.11C2012.62 463.388 2011.79 462.475 2011.17 461.425C2010.55 460.374 2010.15 459.209 2010 458C2010.29 449.031 2011.29 440.099 2013 431.29C2015.25 416.75 2017.81 402.653 2020.68 389C2026.07 362.48 2029.69 345.347 2031.54 337.6C2036.56 316.933 2040.45 306.48 2043.2 306.24C2046.14 306.088 2049.09 306.541 2051.85 307.57C2055.11 308.683 2056.81 310.05 2056.96 311.67C2055.07 326.032 2052.12 340.237 2048.16 354.17C2044.26 370.31 2041.76 381.463 2040.66 387.63C2038.85 397.27 2037.49 404.15 2036.58 408.27C2034.43 418.33 2032.34 428.31 2030.29 438.21C2034.62 435.81 2039.01 433.34 2043.48 430.8C2049.43 427.021 2055.87 424.096 2062.63 422.11C2064.38 421.96 2066.35 423.11 2068.53 425.67C2070.34 427.469 2071.57 429.773 2072.05 432.28C2071.99 434.44 2068.9 438.127 2062.78 443.34C2059.96 445.727 2056.47 448.427 2052.3 451.44Z" fill="white"/>
<path d="M2113.14 370.83C2112.82 378.882 2111.41 386.854 2108.96 394.53C2107.9 398.41 2106.3 403.983 2104.16 411.25C2104.07 412.135 2104.07 413.025 2104.16 413.91C2104.52 416.63 2105.29 419.278 2106.46 421.76C2107.43 423.718 2108.16 425.791 2108.61 427.93C2108.6 431.361 2107.92 434.758 2106.61 437.93C2102.69 449.41 2096.84 455.487 2089.06 456.16C2087.28 456.397 2085.48 456.041 2083.93 455.148C2082.37 454.255 2081.16 452.874 2080.47 451.22C2079.01 447.801 2078.17 444.146 2078.01 440.43C2078.2 432.502 2079.16 424.611 2080.88 416.87C2083.04 404.405 2086.22 392.138 2090.38 380.19C2095.05 367.283 2099.9 360.617 2104.93 360.19C2106.03 360.054 2107.15 360.238 2108.15 360.721C2109.16 361.203 2110 361.963 2110.58 362.91C2112.09 365.289 2112.98 368.015 2113.14 370.83ZM2126.14 324.56C2125.77 328.386 2124.27 332.015 2121.84 334.99C2118.78 339.657 2116.18 342.097 2114.04 342.31C2110.36 341.608 2106.91 340.023 2103.98 337.69C2098.09 334.05 2095.02 330.783 2094.77 327.89C2095.4 324.554 2096.74 321.392 2098.7 318.62C2101.99 312.887 2105.14 309.887 2108.16 309.62C2112.34 309.618 2116.37 311.193 2119.44 314.03C2121.23 315.217 2122.75 316.765 2123.9 318.575C2125.06 320.386 2125.82 322.417 2126.14 324.54V324.56Z" fill="white"/>
<path d="M2198.57 374.18C2193.16 374.721 2187.79 375.569 2182.48 376.72C2180.12 377.167 2174.54 378.41 2165.75 380.45C2164.97 383.116 2164.47 385.858 2164.28 388.63C2163.82 392.79 2162.94 401.873 2161.63 415.88C2161.08 421.12 2160.33 438.57 2159.39 468.23C2159.51 474.384 2158.97 480.533 2157.77 486.57C2156.84 489.464 2155.49 492.207 2153.77 494.71C2152.39 496.254 2150.71 497.504 2148.83 498.383C2146.96 499.263 2144.92 499.755 2142.85 499.83C2141.45 500.104 2140.01 500.092 2138.61 499.793C2137.22 499.493 2135.9 498.914 2134.73 498.09C2132.66 495.464 2131.57 492.202 2131.64 488.86C2131.22 472.397 2132.13 455.927 2134.36 439.61C2136.05 421.254 2138.76 403.006 2142.47 384.95C2140.81 385.849 2138.99 386.397 2137.11 386.56L2135.23 386.73C2134.54 386.57 2133.83 386.5 2133.12 386.52C2131.22 386.88 2129.25 386.66 2127.47 385.89C2126.47 385.21 2125.83 383.44 2125.58 380.55C2125.23 376.55 2127.84 372.463 2133.43 368.29C2138.21 364.804 2143.45 361.988 2148.99 359.92C2151.28 351.253 2153.03 344.527 2154.25 339.74C2156.39 328.655 2160.68 318.098 2166.89 308.67C2171.38 303.585 2177.25 299.91 2183.79 298.09C2188.87 296.773 2194.06 295.936 2199.3 295.59C2202.21 295.112 2205.2 295.548 2207.85 296.84C2208.9 297.59 2209.76 298.586 2210.34 299.742C2210.92 300.897 2211.21 302.177 2211.18 303.47C2211.85 307.946 2210.94 312.516 2208.62 316.4C2206.28 319.749 2203.07 322.389 2199.33 324.03C2198.27 324.5 2197.14 324.791 2195.99 324.89C2194.46 324.918 2192.93 324.831 2191.41 324.63C2189.65 324.4 2187.87 324.33 2186.09 324.42C2184.33 324.452 2182.65 325.108 2181.33 326.27C2178.84 330.662 2176.96 335.372 2175.73 340.27C2174.02 345.47 2172.38 350.607 2170.81 355.68C2171.69 355.61 2175.28 355.06 2181.57 354.08C2187.86 353.1 2192.15 352.49 2194.41 352.3C2200.07 351.248 2205.92 351.852 2211.25 354.04C2212.42 354.901 2213.36 356.03 2214 357.331C2214.65 358.633 2214.97 360.069 2214.94 361.52C2214.82 369.007 2209.36 373.227 2198.57 374.18Z" fill="white"/>
<path d="M2271.09 347C2271.5 352.64 2271.03 358.31 2269.72 363.81C2267.96 371.293 2265.02 378.446 2261 385C2257.44 390.88 2252.81 396.042 2247.35 400.22C2240.19 405.02 2233.09 409.813 2226.05 414.6C2226.4 415.7 2226.65 416.51 2226.83 416.99C2227.6 418.57 2228.55 419.32 2229.68 419.22C2241.63 416.618 2253.09 412.093 2263.59 405.82C2271.31 401.6 2279.09 397.38 2286.94 393.16C2287.55 393.023 2288.19 393.064 2288.78 393.278C2289.37 393.493 2289.89 393.872 2290.27 394.37C2291.07 395.879 2291.66 397.491 2292.02 399.16C2292.49 404.547 2287.37 411 2276.64 418.52C2266.48 425.541 2255.62 431.509 2244.25 436.33C2236.86 440.091 2229.01 442.881 2220.9 444.63C2217.74 444.703 2214.63 443.892 2211.91 442.287C2209.19 440.683 2206.97 438.349 2205.51 435.55C2201.84 430.339 2199.61 424.256 2199.03 417.91C2198.19 398.652 2204.07 379.701 2215.68 364.31C2228.26 345.643 2241.2 335.723 2254.51 334.55C2264.76 333.663 2270.28 337.813 2271.09 347ZM2248.83 359.2C2246.21 359.676 2243.8 360.943 2241.93 362.83C2239.41 365.093 2237.07 367.547 2234.93 370.17C2232.3 373.344 2230.15 376.889 2228.55 380.69C2227.05 384.268 2225.79 387.943 2224.78 391.69C2228.68 389.301 2232.36 386.567 2235.78 383.52C2238.21 381.423 2240.42 379.076 2242.37 376.52C2244.59 373.888 2246.63 371.108 2248.47 368.2C2249.99 365.907 2250.75 363.19 2250.63 360.44C2249.63 359.64 2249.08 359.26 2248.83 359.28V359.2Z" fill="white"/>
</svg>
