<svg width="1200" height="800" viewBox="0 0 1200 800" fill="none" xmlns="http://www.w3.org/2000/svg">
<path d="M426.698 329.141C425.02 322.903 421.733 317.215 417.166 312.648C412.598 308.08 406.91 304.793 400.672 303.115C377.713 296.963 285.656 296.963 285.656 296.963C285.656 296.963 193.597 296.963 170.639 303.115C164.402 304.793 158.714 308.08 154.146 312.648C149.579 317.216 146.292 322.903 144.614 329.141C138.462 352.1 138.462 399.999 138.462 399.999C138.462 399.999 138.462 447.899 144.614 470.856C146.291 477.093 149.579 482.781 154.146 487.349C158.714 491.916 164.401 495.203 170.639 496.881C193.597 503.035 285.656 503.035 285.656 503.035C285.656 503.035 377.713 503.035 400.672 496.881C406.91 495.204 412.598 491.916 417.166 487.349C421.733 482.781 425.021 477.093 426.698 470.856C432.85 447.898 432.85 399.997 432.85 399.997C432.85 399.997 432.85 352.099 426.698 329.139" fill="#FF0000"/>
<path d="M256.217 444.157L332.698 399.999L256.217 355.841V444.157ZM598.397 464.222C600.009 460.016 600.818 453.139 600.818 443.594V403.385C600.818 394.121 600.009 387.352 598.397 383.07C596.783 378.79 593.941 376.649 589.873 376.649C585.942 376.649 583.167 378.79 581.555 383.07C579.941 387.352 579.134 394.121 579.134 403.385V443.594C579.134 453.136 579.905 460.015 581.451 464.222C582.992 468.435 585.799 470.538 589.871 470.538C593.941 470.538 596.783 468.435 598.397 464.222V464.222ZM565.769 484.435C559.94 480.51 555.798 474.403 553.346 466.117C550.889 457.841 549.662 446.822 549.662 433.067V414.33C549.662 400.437 551.064 389.278 553.872 380.858C556.678 372.438 561.061 366.298 567.03 362.438C572.995 358.58 580.819 356.648 590.504 356.648C600.047 356.648 607.695 358.614 613.451 362.542C619.203 366.471 623.414 372.614 626.082 380.963C628.746 389.314 630.08 400.437 630.08 414.331V433.069C630.08 446.822 628.783 457.877 626.187 466.225C623.589 474.576 619.378 480.682 613.554 484.539C607.73 488.399 599.836 490.329 589.873 490.329C579.623 490.329 571.59 488.363 565.769 484.435V484.435ZM1016.59 379.059C1015.12 380.885 1014.13 383.868 1013.64 388.006C1013.15 392.146 1012.91 398.427 1012.91 406.847V416.111H1034.17V406.845C1034.17 398.567 1033.89 392.286 1033.33 388.004C1032.76 383.724 1031.75 380.709 1030.28 378.953C1028.8 377.198 1026.52 376.32 1023.43 376.32C1020.34 376.32 1018.06 377.234 1016.59 379.057V379.059ZM1012.91 433.375V439.901C1012.91 448.183 1013.15 454.393 1013.64 458.532C1014.13 462.673 1015.15 465.692 1016.7 467.586C1018.24 469.478 1020.62 470.428 1023.85 470.428C1028.2 470.428 1031.19 468.744 1032.8 465.374C1034.41 462.006 1035.29 456.392 1035.43 448.53L1060.48 450.006C1060.62 451.133 1060.7 452.676 1060.7 454.637C1060.7 466.568 1057.43 475.483 1050.9 481.375C1044.38 487.267 1035.15 490.217 1023.22 490.217C1008.91 490.217 998.871 485.728 993.117 476.742C987.36 467.764 984.485 453.868 984.485 435.059V412.532C984.485 393.164 987.467 379.026 993.434 370.109C999.397 361.199 1009.61 356.742 1024.06 356.742C1034.03 356.742 1041.68 358.567 1047.01 362.216C1052.34 365.869 1056.1 371.553 1058.27 379.269C1060.45 386.988 1061.54 397.656 1061.54 411.269V433.375H1012.91V433.375ZM495.025 430.957L461.971 311.588H490.812L502.389 365.693C505.339 379.031 507.514 390.399 508.915 399.799H509.759C510.74 393.064 512.917 381.767 516.285 365.904L528.286 311.588H557.127L523.655 430.957V488.225H495.023V430.957H495.025ZM723.886 359.174V488.225H701.148L698.621 472.435H697.991C691.813 484.365 682.55 490.328 670.2 490.328C661.64 490.328 655.325 487.523 651.254 481.907C647.183 476.297 645.149 467.522 645.149 455.591V359.174H674.201V453.91C674.201 459.667 674.833 463.771 676.096 466.225C677.359 468.684 679.464 469.909 682.412 469.909C684.938 469.909 687.359 469.14 689.674 467.591C691.99 466.048 693.709 464.087 694.832 461.701V359.172H723.886V359.174ZM872.907 359.174V488.225H850.169L847.641 472.435H847.014C840.831 484.365 831.569 490.328 819.221 490.328C810.659 490.328 804.344 487.523 800.273 481.907C796.202 476.297 794.17 467.522 794.17 455.591V359.174H823.221V453.91C823.221 459.667 823.852 463.771 825.113 466.225C826.378 468.684 828.485 469.909 831.431 469.909C833.959 469.909 836.38 469.14 838.693 467.591C841.011 466.048 842.728 464.087 843.853 461.701V359.172H872.905" fill="white"/>
<path d="M802.83 334.962H773.987V488.225H745.568V334.96H716.727V311.593H802.83V334.962ZM942.429 432.442C942.429 441.846 942.038 449.215 941.268 454.546C940.497 459.884 939.198 463.671 937.373 465.914C935.548 468.16 933.089 469.283 930.007 469.283C927.687 469.303 925.402 468.723 923.373 467.599C921.338 466.476 919.691 464.793 918.426 462.546V389.282C919.408 385.774 921.092 382.897 923.479 380.651C925.865 378.408 928.458 377.283 931.266 377.283C934.216 377.283 936.493 378.441 938.111 380.754C939.721 383.071 940.846 386.966 941.479 392.44C942.111 397.913 942.429 405.702 942.429 415.807V432.442ZM969.058 379.802C967.301 371.663 964.458 365.769 960.531 362.118C956.6 358.471 951.196 356.646 944.321 356.646C938.987 356.646 934.005 358.154 929.374 361.171C924.807 364.118 921.102 368.222 918.637 373.066H918.424L918.426 305.065H890.429V488.221H914.426L917.374 476.013H918.005C920.249 480.363 923.617 483.801 928.109 486.327C932.599 488.854 937.584 490.117 943.058 490.117C952.879 490.117 960.109 485.59 964.742 476.539C969.373 467.484 971.69 453.348 971.69 434.118V413.697C971.69 399.243 970.81 387.944 969.058 379.802" fill="white"/>
</svg>
